<svg width="18" height="19" viewBox="0 0 18 19" fill="none" xmlns="http://www.w3.org/2000/svg">
<path d="M8.99606 5.40692C9.65396 5.40692 10.4787 4.94848 10.9698 4.33722C11.4145 3.78327 11.7389 3.00964 11.7389 2.23602C11.7389 2.13096 11.7296 2.0259 11.7111 1.93994C10.979 1.96859 10.0987 2.44614 9.57057 3.08605C9.15359 3.57315 8.77368 4.33722 8.77368 5.12039C8.77368 5.235 8.79221 5.34961 8.80147 5.38782C8.84781 5.39737 8.92193 5.40692 8.99606 5.40692ZM6.67952 16.9635C7.57834 16.9635 7.97678 16.3427 9.09799 16.3427C10.2377 16.3427 10.4879 16.9444 11.4887 16.9444C12.4709 16.9444 13.1288 16.0084 13.7496 15.0915C14.4446 14.0409 14.7318 13.0094 14.7504 12.9617C14.6855 12.9426 12.8045 12.1499 12.8045 9.9245C12.8045 7.99521 14.2871 7.12608 14.3705 7.05923C13.3882 5.60749 11.8964 5.56929 11.4887 5.56929C10.386 5.56929 9.48717 6.25695 8.92193 6.25695C8.31037 6.25695 7.50421 5.60749 6.54979 5.60749C4.73362 5.60749 2.88965 7.15473 2.88965 10.0773C2.88965 11.892 3.57535 13.8117 4.41857 15.0533C5.14133 16.1039 5.77143 16.9635 6.67952 16.9635Z" fill="black"/>
</svg>
