<svg width="100" height="100" viewBox="0 0 100 100" fill="none" xmlns="http://www.w3.org/2000/svg">
<path d="M67.5627 40.2435C61.4841 34.17 68.5929 29.6561 72.714 27.5685C80.168 23.7947 90.0225 27.1711 90.0225 27.1711C90.0225 27.1711 73.6454 46.3252 67.5627 40.2435Z" fill="#FF5568"/>
<path d="M60.0046 32.6918C66.0832 38.7653 70.6009 31.6624 72.6903 27.5448C76.4673 20.0971 73.088 10.2509 73.088 10.2509C73.088 10.2509 53.923 26.6142 60.0046 32.6918Z" fill="#FF5568"/>
<path opacity="0.8" d="M74.4727 18.5818L63.6889 29.3576L70.909 36.5706L81.6928 25.7959L82.7282 17.5473L74.4727 18.5818Z" fill="#FF5568"/>
<path d="M47.7682 33.7326C40.3193 29.4348 46.0167 23.2399 49.464 20.1568C55.6858 14.5837 66.0771 15.2981 66.0771 15.2981C66.0771 15.2981 55.218 38.0293 47.7682 33.7326Z" fill="#FCD667"/>
<path d="M38.5122 28.393C45.9621 32.6898 48.4811 24.6594 49.4331 20.1383C51.1515 11.9679 45.3378 3.33333 45.3378 3.33333C45.3378 3.33333 31.0634 24.0953 38.5122 28.393Z" fill="#FCD667"/>
<path opacity="0.8" d="M56.5388 7.88739L48.8325 11.0229L41.2064 24.2188L50.0492 29.3205L57.6752 16.1236L56.5388 7.88739Z" fill="#FCD667"/>
<path d="M73.0313 60.5937C68.731 53.1501 76.7681 50.6332 81.293 49.6821C89.4703 47.965 98.1121 53.7739 98.1121 53.7739C98.1121 53.7739 77.3327 68.0362 73.0313 60.5937Z" fill="#4A78FF"/>
<path d="M67.6874 51.3445C71.9887 58.7881 78.1889 53.0945 81.2745 49.6512C86.8524 43.4346 86.1374 33.0521 86.1374 33.0521C86.1374 33.0521 63.386 43.902 67.6874 51.3445Z" fill="#4A78FF"/>
<path opacity="0.8" d="M85.3162 41.4572L72.1093 49.0768L77.2142 57.9121L90.4222 50.2925L93.5594 42.5926L85.3162 41.4572Z" fill="#4A78FF"/>
<path d="M92.1448 72.7931C88.0158 57.7634 80.0335 44.0702 68.9865 33.0665C57.975 22.0296 44.2721 14.054 29.2316 9.92767C29.1502 9.94826 29.0698 9.97091 28.9895 9.99253L5.88885 96.1111L92.0778 73.0361C92.1015 72.9548 92.1242 72.8745 92.1448 72.7931Z" fill="white"/>
<path opacity="0.8" d="M92.1448 72.7931C88.0158 57.7634 80.0335 44.0702 68.9865 33.0665C57.975 22.0296 44.2721 14.054 29.2316 9.92767C29.1502 9.94826 29.0698 9.97091 28.9895 9.99253L5.88885 96.1111L92.0778 73.0361C92.1015 72.9548 92.1242 72.8745 92.1448 72.7931Z" fill="#FF6F61"/>
<path opacity="0.8" d="M5.90021 96.0689C14.5804 93.7212 22.4911 89.1363 28.8401 82.7732C48.9303 62.6999 48.9766 30.1708 28.9709 10.043L5.90021 96.0689Z" fill="#FF6F61"/>
</svg>
